<svg width="1460" height="403" viewBox="0 0 1460 403" fill="none" xmlns="http://www.w3.org/2000/svg">
<path d="M59 287L168.5 106L261.5 254" stroke="#9AA5B1" stroke-width="14" stroke-miterlimit="11.4737" stroke-linecap="square"/>
<path d="M199.5 254L301 65L373.5 199.5" stroke="#334155" stroke-width="14" stroke-miterlimit="11.4737" stroke-linecap="square" stroke-linejoin="round"/>
<circle cx="300.5" cy="68" r="13.5" fill="#FF6B2B" stroke="white" stroke-width="3"/>
<path d="M1029.23 258V169.8H1041.83V258H1029.23ZM1080.84 258V169.8H1118.01C1127.41 169.8 1135.69 171.648 1142.83 175.344C1150.05 179.04 1155.64 184.206 1159.59 190.842C1163.62 197.478 1165.63 205.164 1165.63 213.9C1165.63 222.636 1163.62 230.322 1159.59 236.958C1155.64 243.594 1150.05 248.76 1142.83 252.456C1135.69 256.152 1127.41 258 1118.01 258H1080.84ZM1093.44 247.038H1117.25C1124.56 247.038 1130.86 245.652 1136.15 242.88C1141.53 240.108 1145.68 236.244 1148.62 231.288C1151.56 226.248 1153.03 220.452 1153.03 213.9C1153.03 207.264 1151.56 201.468 1148.62 196.512C1145.68 191.556 1141.53 187.692 1136.15 184.92C1130.86 182.148 1124.56 180.762 1117.25 180.762H1093.44V247.038ZM1237.35 259.008C1230.55 259.008 1224.29 257.916 1218.58 255.732C1212.86 253.464 1207.91 250.314 1203.71 246.282C1199.51 242.166 1196.23 237.378 1193.88 231.918C1191.53 226.458 1190.35 220.452 1190.35 213.9C1190.35 207.348 1191.53 201.342 1193.88 195.882C1196.23 190.422 1199.51 185.676 1203.71 181.644C1207.99 177.528 1212.99 174.378 1218.7 172.194C1224.41 169.926 1230.71 168.792 1237.6 168.792C1244.57 168.792 1250.96 169.926 1256.75 172.194C1262.55 174.462 1267.46 177.864 1271.5 182.4L1263.68 190.212C1260.07 186.684 1256.12 184.122 1251.84 182.526C1247.64 180.846 1243.06 180.006 1238.11 180.006C1233.07 180.006 1228.36 180.846 1223.99 182.526C1219.71 184.206 1215.97 186.558 1212.78 189.582C1209.67 192.606 1207.24 196.218 1205.47 200.418C1203.79 204.534 1202.95 209.028 1202.95 213.9C1202.95 218.688 1203.79 223.182 1205.47 227.382C1207.24 231.498 1209.67 235.11 1212.78 238.218C1215.97 241.242 1219.71 243.594 1223.99 245.274C1228.28 246.954 1232.94 247.794 1237.98 247.794C1242.68 247.794 1247.18 247.08 1251.46 245.652C1255.83 244.14 1259.86 241.662 1263.56 238.218L1270.74 247.794C1266.37 251.49 1261.25 254.304 1255.37 256.236C1249.57 258.084 1243.57 259.008 1237.35 259.008ZM1258.64 246.156V213.396H1270.74V247.794L1258.64 246.156ZM1318.93 207.852H1364.29V218.562H1318.93V207.852ZM1320.06 247.038H1371.47V258H1307.46V169.8H1369.71V180.762H1320.06V247.038Z" fill="#334155"/>
<path d="M571.874 258L611.816 169.8H624.29L664.358 258H651.128L615.47 176.856H620.51L584.852 258H571.874ZM588.884 235.95L592.286 225.87H641.93L645.584 235.95H588.884ZM692.635 258V169.8H727.033C734.761 169.8 741.355 171.018 746.815 173.454C752.275 175.89 756.475 179.418 759.415 184.038C762.355 188.658 763.825 194.16 763.825 200.544C763.825 206.928 762.355 212.43 759.415 217.05C756.475 221.586 752.275 225.072 746.815 227.508C741.355 229.944 734.761 231.162 727.033 231.162H699.565L705.235 225.366V258H692.635ZM751.603 258L729.175 225.996H742.657L765.337 258H751.603ZM705.235 226.626L699.565 220.452H726.655C734.719 220.452 740.809 218.73 744.925 215.286C749.125 211.758 751.225 206.844 751.225 200.544C751.225 194.244 749.125 189.372 744.925 185.928C740.809 182.484 734.719 180.762 726.655 180.762H699.565L705.235 174.462V226.626ZM810.39 236.706L809.76 221.334L859.782 169.8H874.146L835.464 210.624L828.408 218.436L810.39 236.706ZM799.302 258V169.8H811.902V258H799.302ZM861.798 258L825.636 215.916L834.078 206.592L876.54 258H861.798Z" fill="#334155"/>
<path d="M473.065 258V150.9H514.834C524.218 150.9 532.225 152.379 538.855 155.337C545.485 158.295 550.585 162.579 554.155 168.189C557.725 173.799 559.51 180.48 559.51 188.232C559.51 195.984 557.725 202.665 554.155 208.275C550.585 213.783 545.485 218.067 538.855 221.127C532.225 224.085 524.218 225.564 514.834 225.564H481.48L488.365 218.373V258H473.065ZM488.365 219.903L481.48 212.253H514.375C524.167 212.253 531.562 210.162 536.56 205.98C541.66 201.798 544.21 195.882 544.21 188.232C544.21 180.582 541.66 174.666 536.56 170.484C531.562 166.302 524.167 164.211 514.375 164.211H481.48L488.365 156.561V219.903Z" fill="#334155"/>
<path d="M909.065 258V150.9H950.834C960.218 150.9 968.225 152.379 974.855 155.337C981.485 158.295 986.585 162.579 990.155 168.189C993.725 173.799 995.51 180.48 995.51 188.232C995.51 195.984 993.725 202.665 990.155 208.275C986.585 213.783 981.485 218.016 974.855 220.974C968.225 223.932 960.218 225.411 950.834 225.411H917.48L924.365 218.373V258H909.065ZM980.669 258L953.435 219.138H969.806L997.346 258H980.669ZM924.365 219.903L917.48 212.406H950.375C960.167 212.406 967.562 210.315 972.56 206.133C977.66 201.849 980.21 195.882 980.21 188.232C980.21 180.582 977.66 174.666 972.56 170.484C967.562 166.302 960.167 164.211 950.375 164.211H917.48L924.365 156.561V219.903Z" fill="#334155"/>
<mask id="path-8-outside-1_41_4" maskUnits="userSpaceOnUse" x="708.185" y="300" width="442" height="39" fill="black">
<rect fill="white" x="708.185" y="300" width="442" height="39"/>
<path d="M710.435 337L726.535 302H729.085L745.185 337H742.435L727.235 303.6H728.335L713.185 337H710.435ZM716.335 327.15L717.185 325H738.135L738.985 327.15H716.335ZM776.538 337V302H790.388C794.088 302 797.338 302.75 800.138 304.25C802.938 305.75 805.105 307.817 806.638 310.45C808.205 313.083 808.988 316.1 808.988 319.5C808.988 322.9 808.205 325.917 806.638 328.55C805.105 331.183 802.938 333.25 800.138 334.75C797.338 336.25 794.088 337 790.388 337H776.538ZM779.088 334.7H790.188C793.488 334.7 796.355 334.05 798.788 332.75C801.222 331.45 803.105 329.667 804.438 327.4C805.772 325.1 806.438 322.467 806.438 319.5C806.438 316.533 805.772 313.917 804.438 311.65C803.105 309.35 801.222 307.55 798.788 306.25C796.355 304.95 793.488 304.3 790.188 304.3H779.088V334.7ZM851.622 337L836.022 302H838.822L853.722 335.45H852.172L867.122 302H869.772L854.172 337H851.622ZM900.415 337V302H902.965V337H900.415ZM949.362 337.25C946.762 337.25 944.295 336.817 941.962 335.95C939.662 335.05 937.878 333.9 936.612 332.5L937.762 330.6C938.962 331.833 940.595 332.883 942.662 333.75C944.762 334.583 946.978 335 949.312 335C951.645 335 953.545 334.7 955.012 334.1C956.512 333.467 957.612 332.633 958.312 331.6C959.045 330.567 959.412 329.417 959.412 328.15C959.412 326.65 959.012 325.45 958.212 324.55C957.412 323.65 956.362 322.933 955.062 322.4C953.762 321.867 952.345 321.417 950.812 321.05C949.278 320.683 947.728 320.3 946.162 319.9C944.595 319.467 943.162 318.917 941.862 318.25C940.562 317.583 939.512 316.683 938.712 315.55C937.945 314.383 937.562 312.883 937.562 311.05C937.562 309.383 937.995 307.85 938.862 306.45C939.728 305.05 941.078 303.917 942.912 303.05C944.745 302.183 947.095 301.75 949.962 301.75C951.895 301.75 953.795 302.033 955.662 302.6C957.562 303.167 959.178 303.933 960.512 304.9L959.562 306.95C958.095 305.95 956.512 305.217 954.812 304.75C953.145 304.25 951.528 304 949.962 304C947.728 304 945.878 304.317 944.412 304.95C942.945 305.583 941.862 306.433 941.162 307.5C940.462 308.533 940.112 309.7 940.112 311C940.112 312.5 940.495 313.7 941.262 314.6C942.062 315.5 943.112 316.217 944.412 316.75C945.712 317.283 947.145 317.733 948.712 318.1C950.278 318.467 951.828 318.867 953.362 319.3C954.895 319.7 956.312 320.233 957.612 320.9C958.912 321.567 959.962 322.467 960.762 323.6C961.562 324.733 961.962 326.2 961.962 328C961.962 329.633 961.512 331.167 960.612 332.6C959.712 334 958.328 335.133 956.462 336C954.628 336.833 952.262 337.25 949.362 337.25ZM1010.48 337.25C1007.88 337.25 1005.46 336.817 1003.23 335.95C1001.03 335.05 999.097 333.8 997.43 332.2C995.797 330.567 994.53 328.683 993.63 326.55C992.73 324.383 992.28 322.033 992.28 319.5C992.28 316.967 992.73 314.633 993.63 312.5C994.53 310.333 995.797 308.45 997.43 306.85C999.097 305.217 1001.03 303.967 1003.23 303.1C1005.46 302.2 1007.88 301.75 1010.48 301.75C1013.08 301.75 1015.48 302.2 1017.68 303.1C1019.91 303.967 1021.85 305.2 1023.48 306.8C1025.11 308.4 1026.38 310.283 1027.28 312.45C1028.21 314.583 1028.68 316.933 1028.68 319.5C1028.68 322.067 1028.21 324.433 1027.28 326.6C1026.38 328.733 1025.11 330.6 1023.48 332.2C1021.85 333.8 1019.91 335.05 1017.68 335.95C1015.48 336.817 1013.08 337.25 1010.48 337.25ZM1010.48 334.9C1012.71 334.9 1014.78 334.517 1016.68 333.75C1018.58 332.983 1020.23 331.9 1021.63 330.5C1023.03 329.1 1024.11 327.467 1024.88 325.6C1025.68 323.733 1026.08 321.7 1026.08 319.5C1026.08 317.267 1025.68 315.233 1024.88 313.4C1024.11 311.533 1023.03 309.9 1021.63 308.5C1020.23 307.1 1018.58 306.017 1016.68 305.25C1014.78 304.483 1012.71 304.1 1010.48 304.1C1008.25 304.1 1006.18 304.483 1004.28 305.25C1002.38 306.017 1000.71 307.1 999.28 308.5C997.88 309.9 996.78 311.533 995.98 313.4C995.214 315.233 994.83 317.267 994.83 319.5C994.83 321.7 995.214 323.733 995.98 325.6C996.78 327.467 997.88 329.1 999.28 330.5C1000.71 331.9 1002.38 332.983 1004.28 333.75C1006.18 334.517 1008.25 334.9 1010.48 334.9ZM1062.52 337V302H1075.07C1078.01 302 1080.52 302.467 1082.62 303.4C1084.72 304.333 1086.34 305.683 1087.47 307.45C1088.61 309.183 1089.17 311.3 1089.17 313.8C1089.17 316.233 1088.61 318.333 1087.47 320.1C1086.34 321.833 1084.72 323.183 1082.62 324.15C1080.52 325.083 1078.01 325.55 1075.07 325.55H1063.92L1065.07 324.35V337H1062.52ZM1086.82 337L1077.72 324.3H1080.62L1089.72 337H1086.82ZM1065.07 324.5L1063.92 323.3H1075.07C1078.84 323.3 1081.69 322.467 1083.62 320.8C1085.59 319.133 1086.57 316.8 1086.57 313.8C1086.57 310.767 1085.59 308.433 1083.62 306.8C1081.69 305.133 1078.84 304.3 1075.07 304.3H1063.92L1065.07 303.05V324.5ZM1131.27 337V324.3L1131.87 325.95L1117.17 302H1119.97L1133.32 323.75H1131.92L1145.27 302H1147.92L1133.22 325.95L1133.82 324.3V337H1131.27Z"/>
</mask>
<path d="M710.435 337L726.535 302H729.085L745.185 337H742.435L727.235 303.6H728.335L713.185 337H710.435ZM716.335 327.15L717.185 325H738.135L738.985 327.15H716.335ZM776.538 337V302H790.388C794.088 302 797.338 302.75 800.138 304.25C802.938 305.75 805.105 307.817 806.638 310.45C808.205 313.083 808.988 316.1 808.988 319.5C808.988 322.9 808.205 325.917 806.638 328.55C805.105 331.183 802.938 333.25 800.138 334.75C797.338 336.25 794.088 337 790.388 337H776.538ZM779.088 334.7H790.188C793.488 334.7 796.355 334.05 798.788 332.75C801.222 331.45 803.105 329.667 804.438 327.4C805.772 325.1 806.438 322.467 806.438 319.5C806.438 316.533 805.772 313.917 804.438 311.65C803.105 309.35 801.222 307.55 798.788 306.25C796.355 304.95 793.488 304.3 790.188 304.3H779.088V334.7ZM851.622 337L836.022 302H838.822L853.722 335.45H852.172L867.122 302H869.772L854.172 337H851.622ZM900.415 337V302H902.965V337H900.415ZM949.362 337.25C946.762 337.25 944.295 336.817 941.962 335.95C939.662 335.05 937.878 333.9 936.612 332.5L937.762 330.6C938.962 331.833 940.595 332.883 942.662 333.75C944.762 334.583 946.978 335 949.312 335C951.645 335 953.545 334.7 955.012 334.1C956.512 333.467 957.612 332.633 958.312 331.6C959.045 330.567 959.412 329.417 959.412 328.15C959.412 326.65 959.012 325.45 958.212 324.55C957.412 323.65 956.362 322.933 955.062 322.4C953.762 321.867 952.345 321.417 950.812 321.05C949.278 320.683 947.728 320.3 946.162 319.9C944.595 319.467 943.162 318.917 941.862 318.25C940.562 317.583 939.512 316.683 938.712 315.55C937.945 314.383 937.562 312.883 937.562 311.05C937.562 309.383 937.995 307.85 938.862 306.45C939.728 305.05 941.078 303.917 942.912 303.05C944.745 302.183 947.095 301.75 949.962 301.75C951.895 301.75 953.795 302.033 955.662 302.6C957.562 303.167 959.178 303.933 960.512 304.9L959.562 306.95C958.095 305.95 956.512 305.217 954.812 304.75C953.145 304.25 951.528 304 949.962 304C947.728 304 945.878 304.317 944.412 304.95C942.945 305.583 941.862 306.433 941.162 307.5C940.462 308.533 940.112 309.7 940.112 311C940.112 312.5 940.495 313.7 941.262 314.6C942.062 315.5 943.112 316.217 944.412 316.75C945.712 317.283 947.145 317.733 948.712 318.1C950.278 318.467 951.828 318.867 953.362 319.3C954.895 319.7 956.312 320.233 957.612 320.9C958.912 321.567 959.962 322.467 960.762 323.6C961.562 324.733 961.962 326.2 961.962 328C961.962 329.633 961.512 331.167 960.612 332.6C959.712 334 958.328 335.133 956.462 336C954.628 336.833 952.262 337.25 949.362 337.25ZM1010.48 337.25C1007.88 337.25 1005.46 336.817 1003.23 335.95C1001.03 335.05 999.097 333.8 997.43 332.2C995.797 330.567 994.53 328.683 993.63 326.55C992.73 324.383 992.28 322.033 992.28 319.5C992.28 316.967 992.73 314.633 993.63 312.5C994.53 310.333 995.797 308.45 997.43 306.85C999.097 305.217 1001.03 303.967 1003.23 303.1C1005.46 302.2 1007.88 301.75 1010.48 301.75C1013.08 301.75 1015.48 302.2 1017.68 303.1C1019.91 303.967 1021.85 305.2 1023.48 306.8C1025.11 308.4 1026.38 310.283 1027.28 312.45C1028.21 314.583 1028.68 316.933 1028.68 319.5C1028.68 322.067 1028.21 324.433 1027.28 326.6C1026.38 328.733 1025.11 330.6 1023.48 332.2C1021.85 333.8 1019.91 335.05 1017.68 335.95C1015.48 336.817 1013.08 337.25 1010.48 337.25ZM1010.48 334.9C1012.71 334.9 1014.78 334.517 1016.68 333.75C1018.58 332.983 1020.23 331.9 1021.63 330.5C1023.03 329.1 1024.11 327.467 1024.88 325.6C1025.68 323.733 1026.08 321.7 1026.08 319.5C1026.08 317.267 1025.68 315.233 1024.88 313.4C1024.11 311.533 1023.03 309.9 1021.63 308.5C1020.23 307.1 1018.58 306.017 1016.68 305.25C1014.78 304.483 1012.71 304.1 1010.48 304.1C1008.25 304.1 1006.18 304.483 1004.28 305.25C1002.38 306.017 1000.71 307.1 999.28 308.5C997.88 309.9 996.78 311.533 995.98 313.4C995.214 315.233 994.83 317.267 994.83 319.5C994.83 321.7 995.214 323.733 995.98 325.6C996.78 327.467 997.88 329.1 999.28 330.5C1000.71 331.9 1002.38 332.983 1004.28 333.75C1006.18 334.517 1008.25 334.9 1010.48 334.9ZM1062.52 337V302H1075.07C1078.01 302 1080.52 302.467 1082.62 303.4C1084.72 304.333 1086.34 305.683 1087.47 307.45C1088.61 309.183 1089.17 311.3 1089.17 313.8C1089.17 316.233 1088.61 318.333 1087.47 320.1C1086.34 321.833 1084.72 323.183 1082.62 324.15C1080.52 325.083 1078.01 325.55 1075.07 325.55H1063.92L1065.07 324.35V337H1062.52ZM1086.82 337L1077.72 324.3H1080.62L1089.72 337H1086.82ZM1065.07 324.5L1063.92 323.3H1075.07C1078.84 323.3 1081.69 322.467 1083.62 320.8C1085.59 319.133 1086.57 316.8 1086.57 313.8C1086.57 310.767 1085.59 308.433 1083.62 306.8C1081.69 305.133 1078.84 304.3 1075.07 304.3H1063.92L1065.07 303.05V324.5ZM1131.27 337V324.3L1131.87 325.95L1117.17 302H1119.97L1133.32 323.75H1131.92L1145.27 302H1147.92L1133.22 325.95L1133.82 324.3V337H1131.27Z" fill="#E85D20" fill-opacity="0.933333"/>
<path d="M710.435 337L709.526 336.582L708.874 338H710.435V337ZM726.535 302V301H725.894L725.626 301.582L726.535 302ZM729.085 302L729.993 301.582L729.725 301H729.085V302ZM745.185 337V338H746.745L746.093 336.582L745.185 337ZM742.435 337L741.524 337.414L741.791 338H742.435V337ZM727.235 303.6V302.6H725.681L726.324 304.014L727.235 303.6ZM728.335 303.6L729.245 304.013L729.886 302.6H728.335V303.6ZM713.185 337V338H713.829L714.095 337.413L713.185 337ZM716.335 327.15L715.405 326.782L714.864 328.15H716.335V327.15ZM717.185 325V324H716.505L716.255 324.632L717.185 325ZM738.135 325L739.065 324.632L738.815 324H738.135V325ZM738.985 327.15V328.15H740.455L739.915 326.782L738.985 327.15ZM779.088 334.7H778.088V335.7H779.088V334.7ZM798.788 332.75L799.26 333.632V333.632L798.788 332.75ZM804.438 327.4L805.3 327.907L805.304 327.902L804.438 327.4ZM804.438 311.65L803.573 312.152L803.577 312.157L804.438 311.65ZM798.788 306.25L798.317 307.132V307.132L798.788 306.25ZM779.088 304.3V303.3H778.088V304.3H779.088ZM851.622 337L850.708 337.407L850.973 338H851.622V337ZM836.022 302V301H834.481L835.108 302.407L836.022 302ZM838.822 302L839.735 301.593L839.471 301H838.822V302ZM853.722 335.45V336.45H855.262L854.635 335.043L853.722 335.45ZM852.172 335.45L851.259 335.042L850.629 336.45H852.172V335.45ZM867.122 302V301H866.473L866.209 301.592L867.122 302ZM869.772 302L870.685 302.407L871.312 301H869.772V302ZM854.172 337V338H854.821L855.085 337.407L854.172 337ZM900.415 337H899.415V338H900.415V337ZM900.415 302V301H899.415V302H900.415ZM902.965 302H903.965V301H902.965V302ZM902.965 337V338H903.965V337H902.965ZM941.962 335.95L941.597 336.881L941.605 336.884L941.613 336.887L941.962 335.95ZM936.612 332.5L935.756 331.982L935.371 332.619L935.87 333.171L936.612 332.5ZM937.762 330.6L938.478 329.903L937.576 328.975L936.906 330.082L937.762 330.6ZM942.662 333.75L942.275 334.672L942.284 334.676L942.293 334.679L942.662 333.75ZM955.012 334.1L955.39 335.026L955.4 335.021L955.012 334.1ZM958.312 331.6L957.496 331.021L957.49 331.03L957.484 331.039L958.312 331.6ZM958.212 324.55L957.464 325.214V325.214L958.212 324.55ZM950.812 321.05L950.579 322.023V322.023L950.812 321.05ZM946.162 319.9L945.895 320.864L945.905 320.866L945.914 320.869L946.162 319.9ZM941.862 318.25L942.318 317.36V317.36L941.862 318.25ZM938.712 315.55L937.876 316.099L937.885 316.113L937.895 316.127L938.712 315.55ZM938.862 306.45L939.712 306.976V306.976L938.862 306.45ZM942.912 303.05L943.339 303.954V303.954L942.912 303.05ZM955.662 302.6L955.371 303.557L955.376 303.558L955.662 302.6ZM960.512 304.9L961.419 305.32L961.765 304.574L961.098 304.09L960.512 304.9ZM959.562 306.95L958.998 307.776L959.973 308.441L960.469 307.37L959.562 306.95ZM954.812 304.75L954.524 305.708L954.535 305.711L954.547 305.714L954.812 304.75ZM944.412 304.95L944.808 305.868V305.868L944.412 304.95ZM941.162 307.5L941.989 308.061L941.994 308.055L941.998 308.049L941.162 307.5ZM941.262 314.6L940.5 315.248L940.507 315.256L940.514 315.264L941.262 314.6ZM944.412 316.75L944.791 315.825V315.825L944.412 316.75ZM948.712 318.1L948.939 317.126V317.126L948.712 318.1ZM953.362 319.3L953.09 320.262L953.099 320.265L953.109 320.268L953.362 319.3ZM957.612 320.9L958.068 320.01V320.01L957.612 320.9ZM960.762 323.6L959.945 324.177V324.177L960.762 323.6ZM960.612 332.6L961.453 333.141L961.458 333.132L960.612 332.6ZM956.462 336L956.875 336.91L956.883 336.907L956.462 336ZM1003.23 335.95L1002.85 336.876L1002.86 336.879L1002.87 336.882L1003.23 335.95ZM997.43 332.2L996.723 332.907L996.73 332.914L996.738 332.921L997.43 332.2ZM993.63 326.55L992.707 326.934L992.709 326.939L993.63 326.55ZM993.63 312.5L994.552 312.889L994.554 312.884L993.63 312.5ZM997.43 306.85L998.13 307.564L998.13 307.564L997.43 306.85ZM1003.23 303.1L1003.6 304.03L1003.6 304.028L1003.23 303.1ZM1017.68 303.1L1017.3 304.026L1017.31 304.029L1017.32 304.032L1017.68 303.1ZM1023.48 306.8L1022.78 307.514V307.514L1023.48 306.8ZM1027.28 312.45L1026.36 312.834L1026.36 312.842L1026.36 312.851L1027.28 312.45ZM1027.28 326.6L1026.36 326.204L1026.36 326.211L1027.28 326.6ZM1023.48 332.2L1022.78 331.486V331.486L1023.48 332.2ZM1017.68 335.95L1018.05 336.88L1018.05 336.878L1017.68 335.95ZM1016.68 333.75L1017.05 334.677V334.677L1016.68 333.75ZM1021.63 330.5L1020.92 329.793V329.793L1021.63 330.5ZM1024.88 325.6L1023.96 325.206L1023.96 325.213L1023.96 325.22L1024.88 325.6ZM1024.88 313.4L1023.96 313.78L1023.96 313.79L1023.96 313.8L1024.88 313.4ZM1021.63 308.5L1022.34 307.793V307.793L1021.63 308.5ZM1016.68 305.25L1017.05 304.323V304.323L1016.68 305.25ZM1004.28 305.25L1003.91 304.323L1004.28 305.25ZM999.28 308.5L998.581 307.785L998.573 307.793L999.28 308.5ZM995.98 313.4L995.061 313.006L995.058 313.014L995.98 313.4ZM995.98 325.6L995.055 325.98L995.058 325.987L995.061 325.994L995.98 325.6ZM999.28 330.5L998.573 331.207L998.582 331.215L999.28 330.5ZM1062.52 337H1061.52V338H1062.52V337ZM1062.52 302V301H1061.52V302H1062.52ZM1082.62 303.4L1083.03 302.486V302.486L1082.62 303.4ZM1087.47 307.45L1086.63 307.99L1086.64 307.997L1087.47 307.45ZM1087.47 320.1L1088.31 320.647L1088.32 320.64L1087.47 320.1ZM1082.62 324.15L1083.03 325.064L1083.04 325.058L1082.62 324.15ZM1063.92 325.55L1063.2 324.858L1061.58 326.55H1063.92V325.55ZM1065.07 324.35H1066.07V321.861L1064.35 323.658L1065.07 324.35ZM1065.07 337V338H1066.07V337H1065.07ZM1086.82 337L1086.01 337.582L1086.31 338H1086.82V337ZM1077.72 324.3V323.3H1075.78L1076.91 324.882L1077.72 324.3ZM1080.62 324.3L1081.44 323.718L1081.14 323.3H1080.62V324.3ZM1089.72 337V338H1091.67L1090.54 336.418L1089.72 337ZM1065.07 324.5L1064.35 325.192L1066.07 326.989V324.5H1065.07ZM1063.92 323.3V322.3H1061.58L1063.2 323.992L1063.92 323.3ZM1083.62 320.8L1082.98 320.037L1082.97 320.043L1083.62 320.8ZM1083.62 306.8L1082.97 307.557L1082.98 307.563L1082.99 307.569L1083.62 306.8ZM1063.92 304.3L1063.19 303.623L1061.65 305.3H1063.92V304.3ZM1065.07 303.05H1066.07V300.486L1064.34 302.373L1065.07 303.05ZM1131.27 337H1130.27V338H1131.27V337ZM1131.27 324.3L1132.21 323.958L1130.27 324.3H1131.27ZM1131.87 325.95L1131.02 326.473L1132.81 325.608L1131.87 325.95ZM1117.17 302V301H1115.39L1116.32 302.523L1117.17 302ZM1119.97 302L1120.83 301.477L1120.53 301H1119.97V302ZM1133.32 323.75V324.75H1135.11L1134.18 323.227L1133.32 323.75ZM1131.92 323.75L1131.07 323.227L1130.14 324.75H1131.92V323.75ZM1145.27 302V301H1144.71L1144.42 301.477L1145.27 302ZM1147.92 302L1148.78 302.523L1149.71 301H1147.92V302ZM1133.22 325.95L1132.28 325.608L1134.08 326.473L1133.22 325.95ZM1133.82 324.3H1134.82L1132.88 323.958L1133.82 324.3ZM1133.82 337V338H1134.82V337H1133.82Z" fill="#E85D20" fill-opacity="0.933333" mask="url(#path-8-outside-1_41_4)"/>
<line x1="1210.08" y1="319" x2="1271" y2="319" stroke="#334155" stroke-opacity="0.933333" stroke-width="2"/>
<path d="M572 320C595.792 320 609.131 320 632.923 320" stroke="#334155" stroke-opacity="0.933333" stroke-width="2"/>
</svg>
